HIERARCHY
ROOT mixamorig:Hips
{
	OFFSET 0.000000 93.996948 0.000004
	CHANNELS 6 Xposition Yposition Zposition Xrotation Yrotation Zrotation
	JOINT mixamorig:Spine
	{
		OFFSET 0.000000 12.994652 -0.000000
		CHANNELS 6 Xposition Yposition Zposition Xrotation Yrotation Zrotation
		JOINT mixamorig:Spine1
		{
			OFFSET 0.000000 12.666664 0.000001
			CHANNELS 6 Xposition Yposition Zposition Xrotation Yrotation Zrotation
			JOINT mixamorig:Spine2
			{
				OFFSET -0.000000 12.666656 0.000001
				CHANNELS 6 Xposition Yposition Zposition Xrotation Yrotation Zrotation
				JOINT mixamorig:LeftShoulder
				{
					OFFSET 6.999992 10.364258 1.903785
					CHANNELS 6 Xposition Yposition Zposition Xrotation Yrotation Zrotation
					JOINT mixamorig:LeftArm
					{
						OFFSET 13.607773 0.000000 0.000001
						CHANNELS 3 Xrotation Yrotation Zrotation
						JOINT mixamorig:LeftForeArm
						{
							OFFSET 27.102146 -0.000031 0.000078
							CHANNELS 6 Xposition Yposition Zposition Xrotation Yrotation Zrotation
							JOINT mixamorig:LeftHand
							{
								OFFSET 28.226727 -0.000046 0.000120
								CHANNELS 6 Xposition Yposition Zposition Xrotation Yrotation Zrotation
								JOINT mixamorig:LeftHandIndex1
								{
									OFFSET 8.050400 -0.094543 2.543380
									CHANNELS 6 Xposition Yposition Zposition Xrotation Yrotation Zrotation
									JOINT mixamorig:LeftHandIndex2
									{
										OFFSET 4.499985 0.000000 0.000008
										CHANNELS 3 Xrotation Yrotation Zrotation
										JOINT mixamorig:LeftHandIndex3
										{
											OFFSET 2.768486 -0.000015 -0.000012
											CHANNELS 6 Xposition Yposition Zposition Xrotation Yrotation Zrotation
											End Site
											{
												OFFSET 2.768494 0.000061 -0.000035
											}
										}
									}
								}
								JOINT mixamorig:LeftHandMiddle1
								{
									OFFSET 8.205635 -0.094559 0.544589
									CHANNELS 6 Xposition Yposition Zposition Xrotation Yrotation Zrotation
									JOINT mixamorig:LeftHandMiddle2
									{
										OFFSET 4.699982 0.000031 0.000007
										CHANNELS 3 Xrotation Yrotation Zrotation
										JOINT mixamorig:LeftHandMiddle3
										{
											OFFSET 3.099998 0.000000 -0.000003
											CHANNELS 6 Xposition Yposition Zposition Xrotation Yrotation Zrotation
											End Site
											{
												OFFSET 3.099991 0.000015 0.000005
											}
										}
									}
								}
								JOINT mixamorig:LeftHandPinky1
								{
									OFFSET 7.021164 -0.094574 -3.111078
									CHANNELS 6 Xposition Yposition Zposition Xrotation Yrotation Zrotation
									JOINT mixamorig:LeftHandPinky2
									{
										OFFSET 3.499992 -0.000015 -0.000003
										CHANNELS 6 Xposition Yposition Zposition Xrotation Yrotation Zrotation
										JOINT mixamorig:LeftHandPinky3
										{
											OFFSET 2.199982 0.000015 0.000009
											CHANNELS 3 Xrotation Yrotation Zrotation
											End Site
											{
												OFFSET 2.199989 0.000000 0.000013
											}
										}
									}
								}
								JOINT mixamorig:LeftHandRing1
								{
									OFFSET 7.772285 -0.094604 -1.421571
									CHANNELS 6 Xposition Yposition Zposition Xrotation Yrotation Zrotation
									JOINT mixamorig:LeftHandRing2
									{
										OFFSET 4.300003 0.000000 0.000006
										CHANNELS 3 Xrotation Yrotation Zrotation
										JOINT mixamorig:LeftHandRing3
										{
											OFFSET 2.773186 -0.000015 0.000001
											CHANNELS 6 Xposition Yposition Zposition Xrotation Yrotation Zrotation
											End Site
											{
												OFFSET 2.773193 0.000046 0.000004
											}
										}
									}
								}
								JOINT mixamorig:LeftHandThumb1
								{
									OFFSET 2.151253 -0.094543 2.784745
									CHANNELS 6 Xposition Yposition Zposition Xrotation Yrotation Zrotation
									JOINT mixamorig:LeftHandThumb2
									{
										OFFSET 3.454651 -0.000015 1.994560
										CHANNELS 6 Xposition Yposition Zposition Xrotation Yrotation Zrotation
										JOINT mixamorig:LeftHandThumb3
										{
											OFFSET 3.027802 -0.000046 0.000018
											CHANNELS 3 Xrotation Yrotation Zrotation
											End Site
											{
												OFFSET 3.027802 -0.000046 0.000012
											}
										}
									}
								}
							}
						}
					}
				}
				JOINT mixamorig:Neck
				{
					OFFSET -0.000013 18.093918 -0.000010
					CHANNELS 6 Xposition Yposition Zposition Xrotation Yrotation Zrotation
					JOINT mixamorig:Head
					{
						OFFSET 0.000000 11.149841 0.000000
						CHANNELS 3 Xrotation Yrotation Zrotation
						End Site
						{
							OFFSET 0.000000 11.149841 0.000000
						}
					}
				}
				JOINT mixamorig:RightShoulder
				{
					OFFSET -7.000004 10.364258 1.903772
					CHANNELS 6 Xposition Yposition Zposition Xrotation Yrotation Zrotation
					JOINT mixamorig:RightArm
					{
						OFFSET -13.607773 -0.000015 0.000001
						CHANNELS 3 Xrotation Yrotation Zrotation
						JOINT mixamorig:RightForeArm
						{
							OFFSET -27.102154 -0.000046 -0.000013
							CHANNELS 6 Xposition Yposition Zposition Xrotation Yrotation Zrotation
							JOINT mixamorig:RightHand
							{
								OFFSET -28.299980 -0.000061 -0.000095
								CHANNELS 6 Xposition Yposition Zposition Xrotation Yrotation Zrotation
								JOINT mixamorig:RightHandIndex1
								{
									OFFSET -7.977158 -0.094589 2.543477
									CHANNELS 6 Xposition Yposition Zposition Xrotation Yrotation Zrotation
									JOINT mixamorig:RightHandIndex2
									{
										OFFSET -4.499977 0.000015 -0.000009
										CHANNELS 6 Xposition Yposition Zposition Xrotation Yrotation Zrotation
										JOINT mixamorig:RightHandIndex3
										{
											OFFSET -2.768494 -0.000015 -0.000003
											CHANNELS 6 Xposition Yposition Zposition Xrotation Yrotation Zrotation
											End Site
											{
												OFFSET -2.768494 0.000031 0.000018
											}
										}
									}
								}
								JOINT mixamorig:RightHandMiddle1
								{
									OFFSET -8.132370 -0.094589 0.544699
									CHANNELS 6 Xposition Yposition Zposition Xrotation Yrotation Zrotation
									JOINT mixamorig:RightHandMiddle2
									{
										OFFSET -4.699997 0.000015 -0.000005
										CHANNELS 6 Xposition Yposition Zposition Xrotation Yrotation Zrotation
										JOINT mixamorig:RightHandMiddle3
										{
											OFFSET -3.099991 -0.000015 -0.000005
											CHANNELS 6 Xposition Yposition Zposition Xrotation Yrotation Zrotation
											End Site
											{
												OFFSET -3.099991 0.000000 0.000004
											}
										}
									}
								}
								JOINT mixamorig:RightHandPinky1
								{
									OFFSET -6.947868 -0.094559 -3.110968
									CHANNELS 6 Xposition Yposition Zposition Xrotation Yrotation Zrotation
									JOINT mixamorig:RightHandPinky2
									{
										OFFSET -3.499992 -0.000031 -0.000005
										CHANNELS 6 Xposition Yposition Zposition Xrotation Yrotation Zrotation
										JOINT mixamorig:RightHandPinky3
										{
											OFFSET -2.199989 0.000015 -0.000008
											CHANNELS 6 Xposition Yposition Zposition Xrotation Yrotation Zrotation
											End Site
											{
												OFFSET -2.199997 0.000046 0.000018
											}
										}
									}
								}
								JOINT mixamorig:RightHandRing1
								{
									OFFSET -7.699020 -0.094574 -1.421472
									CHANNELS 6 Xposition Yposition Zposition Xrotation Yrotation Zrotation
									JOINT mixamorig:RightHandRing2
									{
										OFFSET -4.300011 0.000000 -0.000002
										CHANNELS 6 Xposition Yposition Zposition Xrotation Yrotation Zrotation
										JOINT mixamorig:RightHandRing3
										{
											OFFSET -2.773163 -0.000015 -0.000007
											CHANNELS 6 Xposition Yposition Zposition Xrotation Yrotation Zrotation
											End Site
											{
												OFFSET -2.773163 0.000031 0.000001
											}
										}
									}
								}
								JOINT mixamorig:RightHandThumb1
								{
									OFFSET -2.077988 -0.094543 2.784874
									CHANNELS 6 Xposition Yposition Zposition Xrotation Yrotation Zrotation
									JOINT mixamorig:RightHandThumb2
									{
										OFFSET -3.454681 -0.000015 1.994533
										CHANNELS 3 Xrotation Yrotation Zrotation
										JOINT mixamorig:RightHandThumb3
										{
											OFFSET -3.027779 -0.000015 0.000008
											CHANNELS 3 Xrotation Yrotation Zrotation
											End Site
											{
												OFFSET -3.027786 0.000015 0.000006
											}
										}
									}
								}
							}
						}
					}
				}
			}
		}
	}
	JOINT mixamorig:LeftUpLeg
	{
		OFFSET 8.099949 0.000000 0.000000
		CHANNELS 6 Xposition Yposition Zposition Xrotation Yrotation Zrotation
		JOINT mixamorig:LeftLeg
		{
			OFFSET -0.000013 -43.199978 0.000038
			CHANNELS 6 Xposition Yposition Zposition Xrotation Yrotation Zrotation
			JOINT mixamorig:LeftFoot
			{
				OFFSET 0.062409 -43.299969 0.000052
				CHANNELS 3 Xrotation Yrotation Zrotation
				JOINT mixamorig:LeftToeBase
				{
					OFFSET -0.000006 -6.239403 13.169413
					CHANNELS 6 Xposition Yposition Zposition Xrotation Yrotation Zrotation
					End Site
					{
						OFFSET 0.000003 0.000088 14.572700
					}
				}
			}
		}
	}
	JOINT mixamorig:RightUpLeg
	{
		OFFSET -8.099949 0.000000 -0.000000
		CHANNELS 6 Xposition Yposition Zposition Xrotation Yrotation Zrotation
		JOINT mixamorig:RightLeg
		{
			OFFSET 0.000005 -43.200005 0.000037
			CHANNELS 6 Xposition Yposition Zposition Xrotation Yrotation Zrotation
			JOINT mixamorig:RightFoot
			{
				OFFSET -0.062555 -43.299992 0.000030
				CHANNELS 3 Xrotation Yrotation Zrotation
				JOINT mixamorig:RightToeBase
				{
					OFFSET -0.000008 -6.239427 13.169404
					CHANNELS 3 Xrotation Yrotation Zrotation
					End Site
					{
						OFFSET -0.000019 0.000005 14.572704
					}
				}
			}
		}
	}
}
MOTION
Frames: 4
Frame Time: 0.041667
0.000000 89.029144 0.000000 -0.000005 0.000000 -0.000000 -0.000002 12.546089 0.000001 -0.000000 -0.000000 -0.000000 -0.000001 12.308357 0.000002 -0.000000 -0.000000 -0.000000 -0.000001 11.703339 0.000005 -0.000000 -0.000000 -0.000000 6.667785 9.777283 0.000001 0.000003 0.000005 -0.000003 0.000000 -0.000000 0.000000 23.150318 0.000031 0.000067 0.000000 0.000000 -0.000000 25.491985 0.000031 -0.000007 0.000000 -0.000000 -0.000000 7.221771 -0.092102 2.290836 0.000000 -0.000001 0.000000 0.000000 0.000000 0.000000 2.520580 0.000064 -0.000008 -0.000003 0.000008 0.000002 7.277762 -0.092112 0.487470 0.000007 -0.000001 0.000004 0.000000 -0.000000 -0.000003 2.774202 0.000050 -0.000003 0.000000 -0.000000 -0.000007 6.277330 -0.092134 -2.805718 0.000002 0.000085 -0.000001 3.178916 0.000058 0.000003 0.000000 -0.000090 -0.000002 -0.000002 0.000659 -0.000000 6.982758 -0.092148 -1.288437 0.000000 0.000004 0.000000 -0.000000 0.000003 -0.000000 2.533663 0.000010 0.000000 -0.000005 0.000181 -0.000003 1.859597 -0.083721 2.492222 -0.000004 0.000003 0.000003 3.068986 -0.000000 1.771884 0.000146 0.000032 0.000001 -0.000003 -0.000003 -0.000003 -0.000015 17.137619 -0.000006 -0.000000 -0.000000 -0.000000 -0.000000 -0.000000 -0.000000 -6.667801 9.777269 0.000001 0.000003 -0.000005 -0.000014 -0.000000 0.000000 -0.000000 -23.150337 0.000015 -0.000009 0.000000 -0.000000 0.000000 -25.491943 -0.000015 -0.000085 0.000000 0.000000 0.000000 -7.221796 -0.092152 2.290812 0.000000 -0.000229 0.000003 -4.097054 0.000046 0.000010 -0.000000 -0.000000 0.000000 -2.520614 0.000027 0.000005 -0.000000 -0.000517 0.000002 -7.277780 -0.092134 0.487455 0.000005 -0.000133 0.000001 -4.206070 0.000031 0.000006 -0.000000 -0.000000 0.000000 -2.774216 0.000031 0.000002 -0.000000 -0.000000 0.000000 -6.277339 -0.092147 -2.805736 0.000002 -0.000163 -0.000000 -3.178904 -0.000017 0.000005 0.000002 -0.000248 -0.000009 -1.998161 0.000029 0.000007 -0.000000 -0.000531 0.000001 -6.982779 -0.092116 -1.288466 0.000002 -0.000054 -0.000001 -3.928635 -0.000000 0.000002 0.000000 -0.000000 0.000000 -2.533665 -0.000023 -0.000003 0.000002 -0.000005 -0.000005 -1.859602 -0.083667 2.492234 -0.000002 -0.000002 0.000002 -0.000070 -0.000017 -0.000003 0.000005 0.000012 0.000002 7.671661 -0.000001 -0.000000 -0.000000 0.000000 -0.000008 -0.000021 -40.915501 0.000027 0.000000 0.000000 0.000000 0.000007 -0.000000 -0.000000 -0.000025 -5.909506 12.473000 0.000007 0.000000 0.000000 -7.671661 -0.000000 -0.000000 0.000000 0.000000 0.000003 -0.000007 -40.915516 0.000027 0.000000 0.000000 -0.000000 -0.000000 0.000000 -0.000000 0.000006 0.000000 0.000000 
-23.343626 87.818779 72.394539 -3.821364 -6.417678 1.626274 -0.000002 12.546082 -0.000005 5.292589 0.546999 -1.543785 -0.000002 12.308357 -0.000004 5.305088 0.548113 -1.547462 -0.000001 11.703339 0.000008 5.308588 0.548429 -1.548499 6.667781 9.777287 0.000003 3.600071 21.496890 4.496861 -16.159130 -19.604562 -87.695121 23.150328 0.000018 0.000064 7.356739 -23.802871 -5.508378 25.491972 0.000017 0.000010 -0.532920 -5.095558 -5.254183 7.221775 -0.092107 2.290851 5.689983 -1.789570 -20.209408 0.000010 -0.000004 -15.494071 2.520592 0.000035 -0.000006 0.000014 0.000009 -10.332866 7.277754 -0.092120 0.487473 1.390350 9.765717 -24.036173 -0.000001 -0.000042 -24.670126 2.774218 0.000037 0.000008 0.000078 -0.000038 -16.460889 6.277340 -0.092144 -2.805715 -5.768208 31.251479 -27.181931 3.178940 0.000013 -0.000003 -0.000288 -0.002178 -23.229094 0.000291 -0.000720 -15.497875 6.982776 -0.092175 -1.288442 3.942270 14.244711 -26.411064 0.000038 0.000137 -28.598233 2.533674 -0.000005 -0.000002 0.000087 0.000262 -19.087604 1.859599 -0.083719 2.492225 61.589906 -28.215009 -7.288608 3.068997 -0.000001 1.771888 -4.260655 10.935765 -8.337656 2.351021 15.976704 -16.637298 -0.000017 17.137606 -0.000004 21.223360 0.446292 -1.401526 21.223341 0.446291 -1.401525 -6.667803 9.777271 0.000008 8.029246 -6.307676 -1.696197 -13.334093 10.544513 81.482839 -23.150309 0.000010 -0.000018 2.765928 25.959941 2.233114 -25.491940 -0.000014 -0.000093 13.540561 3.587387 6.232431 -7.221782 -0.092143 2.290823 3.208517 -2.448623 33.478859 -4.097043 0.000048 -0.000004 0.000047 0.000043 19.913516 -2.520603 0.000055 -0.000007 0.000152 -0.000487 13.283133 -7.277757 -0.092161 0.487454 -3.289878 -18.426414 34.395313 -4.206079 0.000030 -0.000001 0.000023 0.000041 22.507278 -2.774226 0.000007 0.000000 0.000014 0.000037 15.015599 -6.277316 -0.092166 -2.805733 -17.714190 -52.100673 42.530137 -3.178918 -0.000013 -0.000008 0.000050 -0.000219 6.149741 -1.998163 0.000027 0.000000 0.000065 -0.000519 4.100082 -6.982761 -0.092143 -1.288484 -14.280631 -37.487708 30.077848 -3.928641 0.000012 -0.000003 -0.000020 0.000158 23.236135 -2.533672 -0.000027 0.000002 0.000002 0.000095 15.502593 -1.859585 -0.083694 2.492223 39.792105 20.986687 23.627900 -3.982430 -7.035740 6.272831 1.798105 -14.060699 14.504387 7.671660 -0.000002 0.000001 -4.055900 21.003691 1.915472 -0.000021 -40.915504 0.000018 18.086141 0.035154 -0.010348 -11.089793 7.063930 0.430507 -0.000015 -5.909499 12.472996 -0.000025 0.000002 0.000011 -7.671661 0.000005 -0.000002 -9.834609 12.433049 -6.115781 -0.000006 -40.915524 0.000026 21.554668 -0.457128 0.175540 -0.874736 -28.803919 8.829723 -2.570725 0.000005 -0.000002 
-23.064228 87.625389 72.067276 -3.586349 -8.021941 1.433476 -0.000002 12.546089 0.000000 5.665338 0.650120 -1.815419 -0.000003 12.308357 0.000005 5.680942 0.651653 -1.820472 0.000002 11.703354 0.000008 5.682475 0.651804 -1.820971 6.667788 9.777293 0.000003 3.548311 21.294611 5.031506 -16.798539 -19.978358 -87.078007 23.150307 0.000019 0.000079 7.712895 -23.509083 -5.910346 25.491997 0.000002 -0.000007 -0.403163 -6.365153 -5.891873 7.221778 -0.092103 2.290848 6.177393 -2.026726 -20.292984 0.000025 -0.000088 -16.322817 2.520592 0.000035 -0.000005 0.000021 -0.000049 -10.885957 7.277748 -0.092114 0.487482 1.890730 9.437576 -24.347481 0.000010 -0.000045 -25.437294 2.774233 0.000031 -0.000010 0.000072 -0.000048 -16.973684 6.277337 -0.092136 -2.805703 -5.207346 31.186640 -27.961686 3.178938 0.000036 -0.000001 -0.000294 -0.000623 -23.499993 0.000220 0.000324 -15.678908 6.982778 -0.092168 -1.288431 4.222725 14.026235 -27.036645 0.000045 0.000145 -29.159133 2.533671 0.000001 -0.000022 0.000084 0.000268 -19.462865 1.859592 -0.083719 2.492226 61.605301 -28.150988 -7.103418 3.069004 -0.000016 1.771877 -4.049043 10.945283 -8.838333 2.401283 16.137425 -16.819027 -0.000010 17.137606 0.000004 21.190810 0.740670 -1.795870 21.190819 0.740671 -1.795871 -6.667801 9.777297 -0.000012 8.034204 -5.746475 -1.798117 -14.620742 10.630097 81.834443 -23.150333 -0.000001 0.000003 3.208654 27.650890 2.345392 -25.491949 -0.000004 -0.000072 13.502306 3.694997 6.294738 -7.221788 -0.092166 2.290817 3.118109 -2.445652 33.541912 -4.097046 0.000043 0.000013 0.000042 0.000048 20.066780 -2.520606 0.000043 0.000012 0.000157 -0.000474 13.385470 -7.277772 -0.092172 0.487470 -3.352996 -18.447304 34.434190 -4.206076 0.000011 0.000008 0.000008 0.000033 22.673117 -2.774203 0.000030 0.000007 0.000008 0.000027 15.126414 -6.277322 -0.092177 -2.805713 -17.638707 -52.134943 42.717830 -3.178900 -0.000004 0.000010 0.000050 -0.000240 6.068225 -1.998151 0.000031 0.000009 0.000048 -0.000527 4.045717 -6.982780 -0.092135 -1.288470 -14.346809 -37.532825 30.134173 -3.928634 0.000012 0.000002 -0.000017 0.000084 23.305126 -2.533649 -0.000011 0.000010 -0.000012 0.000061 15.548685 -1.859586 -0.083708 2.492237 39.807125 20.908954 23.737230 -4.005105 -6.939867 6.142975 1.778733 -13.987853 14.424461 7.671660 -0.000002 -0.000000 -5.292149 21.682328 2.417421 -0.000022 -40.915493 0.000024 19.760560 0.021331 -0.161212 -11.712324 7.962306 0.058259 -0.000026 -5.909503 12.473006 -0.000036 -0.000001 0.000008 -7.671663 0.000011 -0.000014 -12.111584 15.138553 -5.726152 -0.000006 -40.915516 0.000021 24.385592 0.035880 1.290244 0.147742 -31.311349 10.234615 -3.940365 0.000007 -0.000003 
-22.918303 87.443504 71.688141 -3.257414 -9.027883 0.715333 -0.000001 12.546082 -0.000005 5.907610 0.652156 -1.848002 0.000000 12.308365 0.000006 5.925209 0.653801 -1.853571 -0.000000 11.703339 0.000008 5.925479 0.653829 -1.853657 6.667785 9.777297 0.000005 3.572061 21.146851 5.558612 -17.527712 -21.034396 -86.246315 23.150307 0.000006 0.000064 8.085282 -21.515799 -5.827212 25.491997 0.000034 -0.000006 -1.128611 -7.082055 -6.778642 7.221776 -0.092126 2.290850 6.638446 -2.239402 -20.397257 0.000026 -0.000031 -16.631063 2.520583 0.000052 -0.000016 0.000015 -0.000017 -11.091697 7.277755 -0.092143 0.487479 2.541170 9.089085 -24.882946 0.000001 -0.000034 -25.638385 2.774229 0.000029 -0.000003 0.000072 -0.000044 -17.108137 6.277328 -0.092148 -2.805722 -4.364423 30.981000 -28.999679 3.178911 0.000051 0.000006 -0.000285 -0.000065 -23.331856 0.000195 0.000690 -15.566551 6.982763 -0.092185 -1.288431 4.710554 13.724343 -27.596818 0.000042 0.000158 -29.228869 2.533675 0.000030 -0.000009 0.000086 0.000274 -19.509517 1.859575 -0.083742 2.492241 61.749766 -28.141518 -6.921403 3.069014 0.000001 1.771874 -3.959578 11.098582 -9.148195 2.447739 16.284216 -16.985420 -0.000015 17.137606 -0.000004 21.620646 1.070668 -2.278205 21.620651 1.070667 -2.278204 -6.667804 9.777298 0.000002 8.074855 -5.529696 -1.776844 -15.779209 10.743208 82.572534 -23.150343 -0.000009 -0.000013 3.721441 29.098576 2.411677 -25.491953 -0.000008 -0.000092 14.257501 3.855857 6.172686 -7.221787 -0.092157 2.290815 3.155935 -2.387690 33.538169 -4.097042 0.000039 0.000006 0.000043 0.000054 20.154324 -2.520606 0.000042 -0.000013 0.000149 -0.000473 13.443934 -7.277766 -0.092157 0.487450 -3.315077 -18.407828 34.437233 -4.206076 0.000026 0.000003 0.000011 0.000039 22.731937 -2.774210 0.000013 0.000005 0.000007 0.000035 15.165714 -6.277329 -0.092163 -2.805716 -17.593387 -52.170733 42.793621 -3.178911 -0.000013 0.000002 0.000039 -0.000238 5.835478 -1.998171 0.000044 0.000007 0.000055 -0.000518 3.890527 -6.982769 -0.092116 -1.288479 -14.343901 -37.563110 30.188203 -3.928623 -0.000011 0.000001 -0.000006 0.000049 23.226292 -2.533668 -0.000011 0.000006 -0.000019 0.000030 15.496038 -1.859580 -0.083688 2.492233 39.816656 20.847465 23.803498 -4.001004 -6.905355 6.128571 1.774546 -13.972048 14.407116 7.671661 -0.000006 -0.000005 -7.132101 22.288885 3.642080 -0.000021 -40.915501 0.000012 21.677702 0.098498 -0.100940 -12.326095 8.200803 -0.433613 -0.000025 -5.909503 12.473000 -0.000030 0.000002 0.000008 -7.671660 -0.000008 -0.000010 -13.398716 12.918252 -5.023363 -0.000006 -40.915516 0.000020 25.167451 0.160289 -0.491280 -0.034207 -25.263019 13.190846 -3.313385 0.000002 -0.000003 
